# xmcd
#
# Track frame offsets: 
#        150
#        18293
#        40409
#        57892
#        71606
#        85931
#        103054
#        114073
#        127773
#        149356
#
# Disc length: 2222 seconds
#
# Revision: 0
# Processed by: cddbd v1.5.2PL0 Copyright (c) Steve Scherf et al.
# Submitted via: ExactAudioCopyFreeDBPlugin 1.0
#
DISCID=7d08ac0a
DTITLE=Pierre Omer - Stewarts Garages Conspiracy
DYEAR=2011
DGENRE=Blues
TTITLE0=The End of the World
TTITLE1=I wanna go home
TTITLE2=Gootown
TTITLE3=I got my eyes on you
TTITLE4=International Man of Mystery
TTITLE5=A68
TTITLE6=Chou Chou
TTITLE7=Charly II
TTITLE8=Rambling Man
TTITLE9=At night the sea is ours
EXTD=
EXTT0=
EXTT1=
EXTT2=
EXTT3=
EXTT4=
EXTT5=
EXTT6=
EXTT7=
EXTT8=
EXTT9=
PLAYORDER=
